<?xml version="1.0" standalone="no"?>
<!DOCTYPE svg PUBLIC "-//W3C//DTD SVG 20010904//EN"
 "http://www.w3.org/TR/2001/REC-SVG-20010904/DTD/svg10.dtd">
<svg version="1.0" xmlns="http://www.w3.org/2000/svg"
 width="1920.000000pt" height="1920.000000pt" viewBox="0 0 1920.000000 1920.000000"
 preserveAspectRatio="xMidYMid meet">

<g transform="translate(0.000000,1920.000000) scale(0.100000,-0.100000)"
fill="#000000" stroke="none">
<path d="M4895 16804 c-16 -2 -70 -9 -120 -15 -662 -81 -1299 -429 -1735 -950
-883 -1053 -845 -2603 87 -3600 59 -63 671 -680 1360 -1370 l1252 -1254 778
776 c794 791 845 838 1097 1014 440 305 993 512 1561 582 175 21 607 24 770 5
663 -80 1214 -298 1743 -691 161 -119 197 -154 967 -922 l800 -799 1347 1348
c740 741 1365 1370 1389 1397 214 251 390 561 496 869 237 694 192 1440 -128
2091 -267 546 -699 978 -1244 1245 -262 128 -468 195 -763 247 -146 26 -176
27 -432 27 -295 1 -389 -9 -620 -60 -385 -86 -781 -278 -1090 -528 -52 -42
-702 -683 -1443 -1423 l-1348 -1347 -1362 1360 c-844 843 -1394 1386 -1447
1426 -303 232 -635 398 -982 488 -249 65 -376 81 -658 85 -135 2 -258 1 -275
-1z"/>
<path d="M9428 7193 c7 -3 16 -2 19 1 4 3 -2 6 -13 5 -11 0 -14 -3 -6 -6z"/>
</g>
</svg>
